<svg id="Layer_1" data-name="Layer 1" xmlns="http://www.w3.org/2000/svg" xmlns:xlink="http://www.w3.org/1999/xlink" viewBox="0 0 256 256"><defs><style>.cls-1,.cls-10,.cls-9{fill:none;}.cls-2,.cls-4{fill:#fff;}.cls-10,.cls-2,.cls-3,.cls-5,.cls-6,.cls-9{stroke:#fff;stroke-width:4px;}.cls-2,.cls-3,.cls-9{stroke-linejoin:round;}.cls-3,.cls-5,.cls-6,.cls-8{fill:#01b3fb;}.cls-3{fill-opacity:0.5;}.cls-5{fill-opacity:0.25;}.cls-10,.cls-5,.cls-6{stroke-miterlimit:10;}.cls-6{fill-opacity:0.75;}.cls-7{clip-path:url(#clip-path);}.cls-10{stroke-linecap:round;}</style><clipPath id="clip-path"><path class="cls-1" d="M215,124l-86.4,64.8a16,16,0,0,1-19.2,0L23,124C23,24.67,215,24.67,215,124Z"/></clipPath></defs><g id="Mailbox_Rules" data-name="Mailbox Rules"><path class="cls-2" d="M27.8,116.4l81.6-61.2a16,16,0,0,1,19.2,0l81.6,61.2A2,2,0,0,1,209,120H29A2,2,0,0,1,27.8,116.4Z"/><path class="cls-3" d="M27.8,116.4l81.6-61.2a16,16,0,0,1,19.2,0l81.6,61.2A2,2,0,0,1,209,120H29A2,2,0,0,1,27.8,116.4Z"/><rect class="cls-4" x="23" y="116" width="192" height="104" rx="8"/><rect class="cls-5" x="23" y="116" width="192" height="104" rx="8"/><path class="cls-2" d="M207,116H31a8,8,0,0,0-8,8l86.4,64.8a16,16,0,0,0,19.2,0L215,124A8,8,0,0,0,207,116Z"/><path class="cls-6" d="M207,116H31a8,8,0,0,0-8,8l86.4,64.8a16,16,0,0,0,19.2,0L215,124A8,8,0,0,0,207,116Z"/><g class="cls-7"><path class="cls-8" d="M112.21,218l-5.9-17.69a49.93,49.93,0,0,1-12.66-5.24L77,203.41l-9.61-9.61,8.34-16.68a49.93,49.93,0,0,1-5.24-12.66l-17.69-5.9V145l17.69-5.89a49.63,49.63,0,0,1,5.24-12.66l-8.34-16.68L77,100.13l16.68,8.34a49.93,49.93,0,0,1,12.66-5.24l5.9-17.7h13.58l5.9,17.7a49.78,49.78,0,0,1,12.66,5.24L161,100.13l9.61,9.61-8.34,16.68a49.63,49.63,0,0,1,5.24,12.66L185.23,145v13.59l-17.69,5.9a49.93,49.93,0,0,1-5.24,12.66l8.34,16.68L161,203.41l-16.68-8.34a49.93,49.93,0,0,1-12.66,5.24L125.79,218ZM119,132.36a19.41,19.41,0,1,0,19.41,19.41A19.43,19.43,0,0,0,119,132.36Z"/><path class="cls-4" d="M124.35,87.53l5.79,17.37a47.79,47.79,0,0,1,14.12,5.85l16.37-8.19,7.57,7.57L160,126.5a47.85,47.85,0,0,1,5.85,14.13l17.36,5.78v10.71l-17.36,5.79A47.79,47.79,0,0,1,160,177l8.18,16.37L160.63,201l-16.37-8.18a48,48,0,0,1-14.12,5.84L124.35,216h-10.7l-5.79-17.37a48,48,0,0,1-14.12-5.84L77.37,201,69.8,193.4,78,177a47.79,47.79,0,0,1-5.85-14.12l-17.36-5.79V146.41l17.36-5.78A47.85,47.85,0,0,1,78,126.5L69.8,110.13l7.57-7.57,16.37,8.19a47.79,47.79,0,0,1,14.12-5.85l5.79-17.37h10.7M119,173.18a21.41,21.41,0,1,0-21.41-21.41A21.43,21.43,0,0,0,119,173.18m8.24-89.65H110.76l-.91,2.74-5.1,15.31a51.7,51.7,0,0,0-11.17,4.62L79.15,99,76.58,97.7l-2,2L67,107.3l-2,2,1.29,2.58,7.21,14.43a51.7,51.7,0,0,0-4.62,11.17l-15.31,5.1-2.73.91V160l2.73.91L68.81,166a51.62,51.62,0,0,0,4.62,11.16l-7.21,14.43-1.29,2.58,2,2,7.57,7.57,2,2,2.57-1.29,14.43-7.22A51.73,51.73,0,0,0,104.75,202l5.1,15.3.91,2.74h16.48l.91-2.74,5.1-15.3a51.73,51.73,0,0,0,11.17-4.63l14.43,7.22,2.57,1.29,2-2,7.57-7.57,2-2-1.29-2.58-7.21-14.43A51.62,51.62,0,0,0,169.19,166l15.31-5.11,2.73-.91V143.53l-2.73-.91-15.31-5.1a51.7,51.7,0,0,0-4.62-11.17l7.21-14.43,1.29-2.58-2-2-7.57-7.57-2-2L158.85,99l-14.43,7.21a51.7,51.7,0,0,0-11.17-4.62l-5.1-15.31-.91-2.74ZM119,169.18a17.41,17.41,0,1,1,17.41-17.41A17.43,17.43,0,0,1,119,169.18Z"/></g><path class="cls-9" d="M215,124l-86.4,64.8a16,16,0,0,1-19.2,0L23,124"/><line class="cls-10" x1="25.34" y1="217.66" x2="75" y2="168"/><line class="cls-10" x1="212.66" y1="217.66" x2="163" y2="168"/></g></svg>